HIERARCHY
ROOT Hips
{
	OFFSET 0.000000 0.000000 0.000000
	CHANNELS 6 Xposition Yposition Zposition Zrotation Xrotation Yrotation
	JOINT LeftUpLeg
	{
		OFFSET 3.629690 0.000000 0.000000
		CHANNELS 3 Zrotation Xrotation Yrotation
		JOINT LeftLeg
		{
			OFFSET 0.000000 -17.030560 0.000000
			CHANNELS 3 Zrotation Xrotation Yrotation
			JOINT LeftFoot
			{
				OFFSET 0.000000 -15.712090 0.000000
				CHANNELS 3 Zrotation Xrotation Yrotation
				JOINT LeftToeBase
				{
					OFFSET 0.000000 -1.618809 6.041470
					CHANNELS 3 Zrotation Xrotation Yrotation
					End Site
					{
						OFFSET 0.000000 0.000000 2.952750
					}
				}
			}
		}
	}
	JOINT RightUpLeg
	{
		OFFSET -3.629690 0.000000 0.000000
		CHANNELS 3 Zrotation Xrotation Yrotation
		JOINT RightLeg
		{
			OFFSET 0.000000 -17.030560 0.000000
			CHANNELS 3 Zrotation Xrotation Yrotation
			JOINT RightFoot
			{
				OFFSET 0.000000 -15.712090 0.000000
				CHANNELS 3 Zrotation Xrotation Yrotation
				JOINT RightToeBase
				{
					OFFSET 0.000000 -1.618809 6.041470
					CHANNELS 3 Zrotation Xrotation Yrotation
					End Site
					{
						OFFSET 0.000000 0.000000 2.952750
					}
				}
			}
		}
	}
	JOINT Spine
	{
		OFFSET 0.000000 0.039370 0.000000
		CHANNELS 3 Zrotation Xrotation Yrotation
		JOINT Spine1
		{
			OFFSET 0.000000 7.224080 0.000000
			CHANNELS 3 Zrotation Xrotation Yrotation
			JOINT Neck
			{
				OFFSET 0.000000 10.285650 0.000000
				CHANNELS 3 Zrotation Xrotation Yrotation
				JOINT Head
				{
					OFFSET 0.000000 6.808250 0.000000
					CHANNELS 3 Zrotation Xrotation Yrotation
					End Site
					{
						OFFSET 0.000000 4.527550 0.000000
					}
				}
			}
			JOINT LeftShoulder
			{
				OFFSET 0.000000 10.285650 0.000000
				CHANNELS 3 Zrotation Xrotation Yrotation
				JOINT LeftArm
				{
					OFFSET 7.175730 -0.000031 0.000000
					CHANNELS 3 Zrotation Xrotation Yrotation
					JOINT LeftForeArm
					{
						OFFSET 9.778290 -0.000040 0.000000
						CHANNELS 3 Zrotation Xrotation Yrotation
						JOINT LeftHand
						{
							OFFSET 9.419470 -0.000031 0.000000
							CHANNELS 3 Zrotation Xrotation Yrotation
							JOINT LeftHandThumb
							{
								OFFSET 0.000000 0.000000 0.000000
								CHANNELS 3 Zrotation Xrotation Yrotation
								End Site
								{
									OFFSET 0.000000 0.000000 3.937000
								}
							}
							JOINT L_Wrist_End
							{
								OFFSET 3.937000 -0.000010 0.000000
								CHANNELS 3 Zrotation Xrotation Yrotation
								End Site
								{
									OFFSET 0.000000 0.100000 0.000000
								}
							}
						}
					}
				}
			}
			JOINT RightShoulder
			{
				OFFSET 0.000000 10.285650 0.000000
				CHANNELS 3 Zrotation Xrotation Yrotation
				JOINT RightArm
				{
					OFFSET -7.175730 -0.000031 0.000000
					CHANNELS 3 Zrotation Xrotation Yrotation
					JOINT RightForeArm
					{
						OFFSET -9.778290 -0.000040 0.000000
						CHANNELS 3 Zrotation Xrotation Yrotation
						JOINT RightHand
						{
							OFFSET -9.419470 -0.000031 0.000000
							CHANNELS 3 Zrotation Xrotation Yrotation
							JOINT RightHandThumb
							{
								OFFSET 0.000000 0.000000 0.000000
								CHANNELS 3 Zrotation Xrotation Yrotation
								End Site
								{
									OFFSET 0.000000 0.000000 3.937000
								}
							}
							JOINT R_Wrist_End
							{
								OFFSET -5.393690 -0.000019 0.000000
								CHANNELS 3 Zrotation Xrotation Yrotation
								End Site
								{
									OFFSET 0.000000 0.100000 0.000000
								}
							}
						}
					}
				}
			}
		}
	}
}
MOTION
Frames: 13
Frame Time: 0.038462
0.000000 35.000000 0.000000 -2.335856 0.818700 -13.913836 5.619865 1.716518 1.651238 0.172552 15.384691 0.274068 -7.163804 -11.339234 16.893083 -0.934825 -10.288892 0.255915 -9.148961 -28.303951 -2.260341 0.312697 43.862004 -0.298983 12.504604 0.764445 -8.160487 -0.117798 -9.846094 0.207724 -7.155078 -18.351642 -3.876302 14.442536 21.247790 -4.792187 6.384945 24.532304 3.923502 -20.127790 -33.897239 10.500067 22.434744 16.933800 -9.218174 -88.035627 22.398240 8.775595 -0.357634 -0.288013 -69.900639 2.818436 46.222177 23.447913 -0.884636 0.347763 -0.549435 -0.525683 1.070834 0.328209 -9.755471 7.225760 -5.504453 53.193474 18.560270 16.410025 0.215055 0.407865 124.767797 12.220253 38.675892 -44.199129 0.246351 0.453072 0.227727 -0.361880 -0.565582 0.253765
0.000000 35.000000 0.000000 -3.183510 0.148183 -16.307077 8.493793 4.498036 2.129794 -0.155137 12.093960 -0.003870 -9.588608 -10.728613 15.235235 -0.317395 -11.409500 -0.038056 -5.600495 -23.926203 0.416070 -0.234652 31.247128 -0.122318 17.699576 0.424999 -6.038421 -0.760413 -9.371977 -0.333822 -6.111359 -19.167127 -4.843535 16.571821 22.432602 -6.302618 3.801829 23.695708 10.121687 -20.667187 -32.894224 11.609183 20.930362 17.773692 -7.210918 -87.957190 23.499150 9.870076 0.015267 -0.045168 -59.576410 9.018708 33.291398 13.865100 -0.501826 -0.139287 -1.247167 -0.249991 0.721510 0.288852 -9.443163 7.483841 -4.163889 59.257034 25.504852 14.433381 0.475646 0.054034 108.056111 -1.430769 34.451730 -32.691987 0.261792 0.037175 -0.284356 -0.763599 -0.235997 -0.066761
0.000000 35.000000 0.000000 -2.940209 1.564037 -17.086130 7.340006 5.292803 4.371653 -0.457799 12.620387 0.218712 -7.557407 -12.647586 17.153335 0.249425 -10.465626 0.743380 -4.254778 -19.161847 4.529623 -0.115609 22.784308 -0.372585 22.446429 4.517860 -3.074332 -0.500316 -8.761125 0.666884 -3.287209 -19.812691 -3.489419 16.580650 22.104732 -5.806169 -1.324318 23.875891 16.299710 -17.630604 -31.503115 6.015308 11.511252 16.372140 -3.760860 -81.986621 16.160753 9.968122 0.205505 -0.279102 -55.622142 14.037680 31.447672 8.314699 -1.094116 -0.167614 -1.172814 0.019444 0.289500 0.391070 -7.998260 6.911875 0.712161 74.091397 17.002001 3.972689 0.622661 1.245418 91.918803 -9.932419 24.043727 -26.105591 0.888559 0.003284 -0.287779 -0.616070 -1.368091 0.270364
0.000000 35.000000 0.000000 -2.491889 -1.270512 -17.944667 6.701934 5.131431 2.659649 0.288095 19.990194 -0.155985 -6.146596 -15.713957 18.885399 -0.476015 -8.795469 -0.050480 -0.192698 -10.734782 4.970446 -0.371664 17.718836 0.486244 10.868472 1.693782 -3.856363 -0.644622 -10.335453 -0.344256 1.750088 -18.577518 6.705353 6.779891 19.628313 0.153074 -1.838067 28.584027 13.326942 -13.284241 -31.837055 -2.550840 7.390216 13.317113 -1.689376 -71.679379 -3.760053 1.566474 -0.221272 -0.103667 -57.967911 24.135750 16.182155 5.514027 -0.916965 0.413727 -0.706151 -0.490368 0.003104 0.257734 -7.926194 12.277321 2.623028 84.299383 -0.022509 -9.963438 -0.090539 0.062509 79.876440 -21.227370 23.389706 -20.681261 0.420275 -0.380368 -0.481452 -0.684835 0.220359 0.032965
0.000000 35.000000 0.000000 -2.267302 -3.428747 -16.646079 4.084219 7.343408 3.448073 -0.070988 24.900918 0.137813 -5.020844 -18.839148 17.250070 0.025336 -8.578642 0.263021 -4.426862 -12.395342 6.712523 -1.024317 22.524195 0.197523 7.728043 -3.027897 -7.726520 -0.593338 -6.267295 -0.449218 6.550347 -18.693224 12.508503 3.526290 21.241583 2.738072 -3.781068 26.840208 12.381193 -14.974837 -33.801900 -8.271651 4.495146 10.991257 -3.227793 -72.984463 -15.215510 -2.593717 -0.150375 0.096553 -59.855351 35.198482 14.412576 3.070894 -0.328901 -0.194976 -1.124517 -0.304161 0.082620 -0.198767 -7.813159 12.624603 1.885277 81.744368 -3.208396 -14.274252 0.253950 0.240876 77.238301 -30.399420 7.101006 -21.244462 0.183648 -0.291075 -0.377823 -1.101987 0.132792 -0.073545
0.000000 35.000000 0.000000 -1.990359 -3.947897 -12.564229 4.960618 7.404503 0.968570 -0.029224 25.052210 0.138143 -5.736567 -18.185823 13.609214 -0.130168 -11.275614 0.086089 -4.712790 -15.189980 7.863034 -0.642412 28.063595 0.056936 10.683897 -2.322294 -8.717877 0.086974 -6.099405 -0.114507 2.929252 -20.293024 6.808043 6.107486 22.957006 0.066657 -1.143895 24.626996 9.787348 -16.355690 -34.128055 -4.552196 7.658715 11.120182 -6.300193 -77.351668 -14.985034 0.590071 -0.574918 -0.035242 -64.573152 38.230992 16.627927 0.160287 -0.602691 -0.348884 -0.425854 0.017125 0.062321 0.068329 -5.776608 12.208332 -2.331304 72.301868 5.925821 -11.932137 0.506682 0.681057 82.648608 -27.228389 6.722374 -22.604682 0.104419 -0.095926 -0.018221 -0.688592 -0.164993 0.235902
0.000000 35.000000 0.000000 -1.031606 -3.241776 -9.262976 4.084627 6.169033 -0.832727 0.325042 19.675196 -0.325506 -6.455977 -15.304204 12.418545 -0.012373 -11.598078 0.314308 -5.596409 -16.660614 6.286142 0.129198 33.695038 -0.031588 13.142328 1.655308 -8.668997 0.302263 -9.348510 0.503484 -2.292744 -20.327483 -1.293750 10.765281 24.411458 -4.761129 2.621854 23.328486 6.079934 -18.177094 -34.475212 1.747215 13.416775 12.233151 -12.318952 -78.290535 -12.022682 7.693344 -0.915449 -0.013157 -68.735205 37.730091 16.974033 -1.622922 -0.650211 -0.046736 -0.394337 0.018355 -0.443728 0.032903 -4.323797 10.746590 -6.076843 63.889347 12.266897 -3.189025 0.635103 1.190711 89.951933 -24.298732 9.965980 -22.079306 0.384902 -0.248679 -0.179137 0.158420 -0.103513 0.919404
0.000000 35.000000 0.000000 -0.028791 -2.547064 -5.777179 2.469721 5.684361 -0.496561 0.306018 14.137240 -0.339982 -6.622214 -12.107978 13.671293 -0.215499 -11.220452 0.325003 -5.820750 -19.812732 5.608028 0.398059 40.405065 -0.039317 14.314992 5.663360 -7.885759 0.331833 -11.835849 0.570918 -5.378347 -19.661728 -5.804058 11.666612 25.054277 -7.853320 4.548089 22.808187 5.358492 -18.828150 -34.541089 7.197822 16.950462 13.386845 -14.568835 -77.496532 -7.872775 12.659351 -0.704026 -0.201974 -69.609558 35.038719 14.933372 0.162200 -0.739971 0.228424 -0.393513 -0.178533 -0.378148 0.170388 -4.494221 8.543634 -6.299568 60.002420 13.436642 5.448341 0.668927 1.009841 94.191530 -23.250247 13.761098 -20.323000 0.299718 -0.352299 -0.100333 0.615622 0.141078 0.996466
0.000000 35.000000 0.000000 0.617776 -2.106199 -6.950710 1.211910 6.306232 1.528875 -0.016967 12.877234 0.031618 -5.389564 -10.612409 15.690726 -0.584651 -11.348107 0.160036 -5.322042 -24.504250 6.203157 -0.078229 46.296698 0.193977 14.718748 7.891804 -7.972616 0.297437 -12.508260 0.444870 -4.718945 -18.974691 -5.084104 8.820305 25.022824 -7.971379 3.822043 23.148650 7.862850 -18.151777 -34.482312 9.413455 16.436702 14.419326 -12.354344 -75.454729 -7.255507 13.341257 -0.105624 -0.261132 -71.741441 33.308080 10.262705 3.990715 -0.661685 0.278455 -0.432046 -0.362186 0.060941 0.564266 -6.203017 6.158756 -2.954493 60.889820 11.819633 9.501587 0.526069 0.064679 94.149281 -24.031901 17.565103 -17.693585 0.055476 -0.200896 0.173973 0.539323 0.360161 0.431262
0.000000 35.000000 0.000000 2.075864 -1.631289 -11.419312 -0.702542 8.181663 3.946372 -0.123690 13.126555 0.344515 -3.603496 -11.274375 16.817902 -0.647742 -11.321947 0.084956 -5.125160 -29.383295 8.463252 -0.639451 51.367273 0.548108 14.508768 9.010762 -7.095612 0.341004 -12.569621 0.141930 -0.974769 -18.576385 0.138850 2.647391 24.756597 -5.945747 1.612588 24.369650 11.393549 -15.461188 -34.716852 7.855865 12.966134 14.607702 -8.228166 -73.769425 -11.409911 9.933617 0.191239 -0.138884 -74.720074 36.142372 4.233247 7.203191 -0.756874 0.220394 -0.417343 -0.302569 0.232850 0.630439 -8.254592 4.664721 2.035567 65.263089 9.889402 8.487729 0.261405 -0.441877 90.607057 -26.413094 17.831153 -14.365497 -0.020565 -0.188470 0.204019 0.142340 0.484484 -0.027547
0.000000 35.000000 0.000000 3.776849 -1.184215 -15.376195 -3.127323 10.785249 5.418623 -0.057555 12.364247 0.442558 -1.969543 -13.076340 16.962261 -0.406398 -10.098594 0.010960 -5.819959 -33.385139 11.592714 -0.985561 54.972146 0.849298 15.212543 9.054817 -3.483537 0.313126 -12.360376 -0.251412 3.453778 -18.220329 6.641896 -4.903440 23.598835 -2.904204 -0.478949 25.883472 13.658726 -11.852046 -35.060879 3.189562 8.533485 13.580509 -4.255042 -74.218688 -17.103684 3.392940 0.079857 0.060286 -76.672388 42.470646 -1.848792 7.667752 -0.983155 0.140567 -0.389530 -0.177562 0.190700 0.425360 -9.477344 4.772949 5.785082 71.641321 9.456114 4.012586 -0.048203 -0.307875 81.753633 -28.080303 12.451926 -12.323072 0.191026 -0.333503 0.036371 -0.315933 0.346226 -0.251085
0.000000 35.000000 0.000000 5.243153 -0.665899 -15.271628 -4.929876 12.908121 4.471827 0.060531 9.445039 0.266919 -2.544153 -14.349245 16.133454 -0.078973 -8.988563 -0.021697 -7.390102 -34.496392 12.834197 -0.975447 56.252390 0.910777 16.235018 6.782124 1.963964 0.090544 -11.864505 -0.330807 6.400068 -17.820320 11.156108 -10.269887 21.248566 -0.271234 -1.247079 27.522440 13.175574 -9.361613 -35.581791 -3.103533 5.240008 11.187156 -2.675121 -76.115596 -20.918685 -4.700033 -0.212046 0.202109 -78.355210 49.040599 -5.688975 4.336367 -1.224866 0.055334 -0.465133 -0.179039 0.070025 0.255654 -9.376093 6.541143 6.566752 78.461566 11.229138 -2.002272 -0.091014 0.190286 66.001626 -26.890428 2.420966 -13.137028 0.487171 -0.478520 -0.190564 -0.591490 -0.043404 -0.237714
0.000000 35.000000 0.000000 5.390459 -0.098643 -10.281981 -3.875989 12.730568 -0.080099 0.035799 7.882482 0.124826 -5.971045 -13.809478 13.597700 -0.146599 -10.453636 -0.021658 -8.248863 -30.339938 9.629054 -0.709287 53.587082 0.623246 16.045820 1.057277 4.564853 -0.147202 -10.785207 -0.014303 6.123421 -17.603671 11.182427 -9.495494 18.793807 0.560090 -0.731855 28.296318 10.592279 -9.441819 -35.447666 -7.958993 4.396468 7.606848 -4.461863 -76.117561 -19.873993 -11.513940 -0.258024 0.097749 -83.072767 53.046237 -1.808688 -3.051384 -1.316922 0.064516 -0.644349 -0.543679 0.153345 0.396504 -8.160256 9.327664 3.917672 83.812306 11.947325 -8.221962 0.183244 0.417842 47.480357 -24.551983 -9.403136 -16.008336 0.488682 -0.391780 -0.184055 -0.590096 -0.283382 -0.180470
